<svg id="SvgjsSvg1000" xmlns="http://www.w3.org/2000/svg" version="1.1" xmlns:xlink="http://www.w3.org/1999/xlink" xmlns:svgjs="http://svgjs.com/svgjs" width="23.5275000000006" height="23.53137485047864" viewBox="0 0 23.5275000000006 23.53137485047864"><title>Cross (16x16)</title><desc>Created with Avocode.</desc><defs id="SvgjsDefs1001"><clipPath id="SvgjsClipPath1012"><path id="SvgjsPath1011" d="M1679.23625 621.76569V598.2343199999999H1702.7637499999998V621.76569ZM1699.46 600.235C1699.15 599.922 1698.64 599.922 1698.32 600.235L1692.05 606.501C1691.73 606.8149999999999 1691.22 606.8149999999999 1690.9099999999999 606.501L1684.6399999999999 600.231C1684.32 599.917 1683.81 599.917 1683.4899999999998 600.23L1681.2099999999998 602.5070000000001C1680.8999999999999 602.821 1680.8999999999999 603.3330000000001 1681.2099999999998 603.647L1687.4799999999998 609.9190000000001C1687.7999999999997 610.2330000000001 1687.7999999999997 610.7460000000001 1687.4799999999998 611.0590000000001L1681.1999999999998 617.3270000000001C1680.8899999999999 617.6400000000001 1680.8899999999999 618.1530000000001 1681.1999999999998 618.4670000000001L1683.4899999999998 620.7470000000001C1683.7999999999997 621.0600000000001 1684.3099999999997 621.0600000000001 1684.6299999999999 620.7470000000001L1690.8999999999999 614.48C1691.2199999999998 614.167 1691.7299999999998 614.167 1692.04 614.48L1698.32 620.7520000000001C1698.6299999999999 621.0640000000001 1699.1399999999999 621.0640000000001 1699.46 620.7520000000001L1701.74 618.474C1702.06 618.1610000000001 1702.06 617.648 1701.74 617.335L1695.47 611.063C1695.16 610.749 1695.16 610.236 1695.47 609.923L1701.74 603.654C1702.06 603.34 1702.06 602.828 1701.74 602.514Z " fill="#ffffff"></path></clipPath></defs><path id="SvgjsPath1007" d="M1701.74 602.514C1702.06 602.828 1702.06 603.34 1701.74 603.654L1695.47 609.923C1695.16 610.236 1695.16 610.749 1695.47 611.063L1701.74 617.335C1702.06 617.648 1702.06 618.1610000000001 1701.74 618.474L1699.46 620.7520000000001C1699.14 621.0640000000001 1698.63 621.0640000000001 1698.32 620.7520000000001L1692.04 614.48C1691.73 614.167 1691.22 614.167 1690.8999999999999 614.48L1684.6299999999999 620.7470000000001C1684.31 621.0600000000001 1683.8 621.0600000000001 1683.4899999999998 620.7470000000001L1681.1999999999998 618.4670000000001C1680.8899999999999 618.1530000000001 1680.8899999999999 617.6400000000001 1681.1999999999998 617.3270000000001L1687.4799999999998 611.0590000000001C1687.7999999999997 610.7460000000001 1687.7999999999997 610.2330000000001 1687.4799999999998 609.9190000000001L1681.2099999999998 603.647C1680.8999999999999 603.3330000000001 1680.8999999999999 602.821 1681.2099999999998 602.5070000000001L1683.4899999999998 600.23C1683.8099999999997 599.917 1684.3199999999997 599.917 1684.6399999999999 600.231L1690.9099999999999 606.501C1691.2199999999998 606.8149999999999 1691.7299999999998 606.8149999999999 1692.05 606.501L1698.32 600.235C1698.6399999999999 599.922 1699.1499999999999 599.922 1699.46 600.235Z " fill="#34495e" fill-opacity="1" transform="matrix(1,0,0,1,-1679.2362499999997,-598.2343125747607)"></path><path id="SvgjsPath1008" d="M1701.74 602.514C1702.06 602.828 1702.06 603.34 1701.74 603.654L1695.47 609.923C1695.16 610.236 1695.16 610.749 1695.47 611.063L1701.74 617.335C1702.06 617.648 1702.06 618.1610000000001 1701.74 618.474L1699.46 620.7520000000001C1699.14 621.0640000000001 1698.63 621.0640000000001 1698.32 620.7520000000001L1692.04 614.48C1691.73 614.167 1691.22 614.167 1690.8999999999999 614.48L1684.6299999999999 620.7470000000001C1684.31 621.0600000000001 1683.8 621.0600000000001 1683.4899999999998 620.7470000000001L1681.1999999999998 618.4670000000001C1680.8899999999999 618.1530000000001 1680.8899999999999 617.6400000000001 1681.1999999999998 617.3270000000001L1687.4799999999998 611.0590000000001C1687.7999999999997 610.7460000000001 1687.7999999999997 610.2330000000001 1687.4799999999998 609.9190000000001L1681.2099999999998 603.647C1680.8999999999999 603.3330000000001 1680.8999999999999 602.821 1681.2099999999998 602.5070000000001L1683.4899999999998 600.23C1683.8099999999997 599.917 1684.3199999999997 599.917 1684.6399999999999 600.231L1690.9099999999999 606.501C1691.2199999999998 606.8149999999999 1691.7299999999998 606.8149999999999 1692.05 606.501L1698.32 600.235C1698.6399999999999 599.922 1699.1499999999999 599.922 1699.46 600.235Z " fill="#34495e" fill-opacity="1" transform="matrix(1,0,0,1,-1679.2362499999997,-598.2343125747607)"></path><path id="SvgjsPath1009" d="M1701.74 602.514C1702.06 602.828 1702.06 603.34 1701.74 603.654L1695.47 609.923C1695.16 610.236 1695.16 610.749 1695.47 611.063L1701.74 617.335C1702.06 617.648 1702.06 618.1610000000001 1701.74 618.474L1699.46 620.7520000000001C1699.14 621.0640000000001 1698.63 621.0640000000001 1698.32 620.7520000000001L1692.04 614.48C1691.73 614.167 1691.22 614.167 1690.8999999999999 614.48L1684.6299999999999 620.7470000000001C1684.31 621.0600000000001 1683.8 621.0600000000001 1683.4899999999998 620.7470000000001L1681.1999999999998 618.4670000000001C1680.8899999999999 618.1530000000001 1680.8899999999999 617.6400000000001 1681.1999999999998 617.3270000000001L1687.4799999999998 611.0590000000001C1687.7999999999997 610.7460000000001 1687.7999999999997 610.2330000000001 1687.4799999999998 609.9190000000001L1681.2099999999998 603.647C1680.8999999999999 603.3330000000001 1680.8999999999999 602.821 1681.2099999999998 602.5070000000001L1683.4899999999998 600.23C1683.8099999999997 599.917 1684.3199999999997 599.917 1684.6399999999999 600.231L1690.9099999999999 606.501C1691.2199999999998 606.8149999999999 1691.7299999999998 606.8149999999999 1692.05 606.501L1698.32 600.235C1698.6399999999999 599.922 1699.1499999999999 599.922 1699.46 600.235Z " fill="#ffffff" fill-opacity="1" transform="matrix(1,0,0,1,-1679.2362499999997,-598.2343125747607)"></path><path id="SvgjsPath1010" d="M1701.74 602.514C1702.06 602.828 1702.06 603.34 1701.74 603.654L1695.47 609.923C1695.16 610.236 1695.16 610.749 1695.47 611.063L1701.74 617.335C1702.06 617.648 1702.06 618.1610000000001 1701.74 618.474L1699.46 620.7520000000001C1699.14 621.0640000000001 1698.63 621.0640000000001 1698.32 620.7520000000001L1692.04 614.48C1691.73 614.167 1691.22 614.167 1690.8999999999999 614.48L1684.6299999999999 620.7470000000001C1684.31 621.0600000000001 1683.8 621.0600000000001 1683.4899999999998 620.7470000000001L1681.1999999999998 618.4670000000001C1680.8899999999999 618.1530000000001 1680.8899999999999 617.6400000000001 1681.1999999999998 617.3270000000001L1687.4799999999998 611.0590000000001C1687.7999999999997 610.7460000000001 1687.7999999999997 610.2330000000001 1687.4799999999998 609.9190000000001L1681.2099999999998 603.647C1680.8999999999999 603.3330000000001 1680.8999999999999 602.821 1681.2099999999998 602.5070000000001L1683.4899999999998 600.23C1683.8099999999997 599.917 1684.3199999999997 599.917 1684.6399999999999 600.231L1690.9099999999999 606.501C1691.2199999999998 606.8149999999999 1691.7299999999998 606.8149999999999 1692.05 606.501L1698.32 600.235C1698.6399999999999 599.922 1699.1499999999999 599.922 1699.46 600.235Z " fill-opacity="0" fill="#ffffff" stroke-dasharray="0" stroke-linejoin="round" stroke-linecap="round" stroke-opacity="1" stroke="#000000" stroke-miterlimit="50" stroke-width="2" clip-path="url(&quot;#SvgjsClipPath1012&quot;)" transform="matrix(1,0,0,1,-1679.2362499999997,-598.2343125747607)"></path></svg>